<svg xmlns="http://www.w3.org/2000/svg" xmlns:xlink="http://www.w3.org/1999/xlink" width="500" zoomAndPan="magnify" viewBox="0 0 375 374.999991" height="500" preserveAspectRatio="xMidYMid meet" version="1.0"><defs><g/><clipPath id="cb909d1af5"><path d="M 252.300781 207.300781 L 271.902344 207.300781 L 271.902344 226.902344 L 252.300781 226.902344 Z M 252.300781 207.300781 " clip-rule="nonzero"/></clipPath><clipPath id="537e6acd59"><path d="M 262.101562 207.300781 C 256.691406 207.300781 252.300781 211.6875 252.300781 217.101562 C 252.300781 222.515625 256.691406 226.902344 262.101562 226.902344 C 267.515625 226.902344 271.902344 222.515625 271.902344 217.101562 C 271.902344 211.6875 267.515625 207.300781 262.101562 207.300781 Z M 262.101562 207.300781 " clip-rule="nonzero"/></clipPath></defs><g fill="#000000" fill-opacity="1"><g transform="translate(108.194039, 224.624985)"><g><path d="M 22.78125 0.75 C 15.4375 0.75 10.128906 -1.066406 6.859375 -4.703125 C 3.597656 -8.335938 1.96875 -14.203125 1.96875 -22.296875 L 1.96875 -30.203125 L 17.875 -30.203125 L 17.875 -20.140625 C 17.875 -16.117188 19.160156 -14.109375 21.734375 -14.109375 C 23.179688 -14.109375 24.1875 -14.53125 24.75 -15.375 C 25.3125 -16.226562 25.59375 -17.660156 25.59375 -19.671875 C 25.59375 -22.304688 25.28125 -24.484375 24.65625 -26.203125 C 24.03125 -27.929688 23.226562 -29.375 22.25 -30.53125 C 21.28125 -31.695312 19.539062 -33.503906 17.03125 -35.953125 L 10.0625 -42.90625 C 4.664062 -48.175781 1.96875 -54.015625 1.96875 -60.421875 C 1.96875 -67.316406 3.550781 -72.566406 6.71875 -76.171875 C 9.894531 -79.785156 14.523438 -81.59375 20.609375 -81.59375 C 27.890625 -81.59375 33.128906 -79.660156 36.328125 -75.796875 C 39.523438 -71.941406 41.125 -65.90625 41.125 -57.6875 L 24.65625 -57.6875 L 24.5625 -63.234375 C 24.5625 -64.304688 24.265625 -65.15625 23.671875 -65.78125 C 23.078125 -66.40625 22.242188 -66.71875 21.171875 -66.71875 C 19.921875 -66.71875 18.976562 -66.375 18.34375 -65.6875 C 17.71875 -65 17.40625 -64.054688 17.40625 -62.859375 C 17.40625 -60.222656 18.910156 -57.492188 21.921875 -54.671875 L 31.34375 -45.640625 C 33.53125 -43.503906 35.347656 -41.476562 36.796875 -39.5625 C 38.242188 -37.65625 39.40625 -35.398438 40.28125 -32.796875 C 41.15625 -30.191406 41.59375 -27.101562 41.59375 -23.53125 C 41.59375 -15.5625 40.132812 -9.519531 37.21875 -5.40625 C 34.300781 -1.300781 29.488281 0.75 22.78125 0.75 Z M 22.78125 0.75 "/></g></g></g><g fill="#000000" fill-opacity="1"><g transform="translate(146.398878, 224.624985)"><g><path d="M 3.578125 0 L 3.578125 -80.84375 L 28.234375 -80.84375 L 35.015625 -31.53125 L 41.78125 -80.84375 L 66.625 -80.84375 L 66.625 0 L 51.859375 0 L 51.859375 -58.25 L 42.53125 0 L 28.046875 0 L 18.15625 -58.25 L 18.15625 0 Z M 3.578125 0 "/></g></g></g><g fill="#000000" fill-opacity="1"><g transform="translate(211.422659, 224.624985)"><g><path d="M 22.875 0.75 C 16.34375 0.75 11.382812 -1.238281 8 -5.21875 C 4.613281 -9.207031 2.921875 -14.804688 2.921875 -22.015625 L 2.921875 -60.515625 C 2.921875 -67.472656 4.613281 -72.722656 8 -76.265625 C 11.382812 -79.816406 16.34375 -81.59375 22.875 -81.59375 C 29.394531 -81.59375 34.347656 -79.816406 37.734375 -76.265625 C 41.117188 -72.722656 42.8125 -67.472656 42.8125 -60.515625 L 42.8125 -22.015625 C 42.8125 -14.742188 41.117188 -9.128906 37.734375 -5.171875 C 34.347656 -1.222656 29.394531 0.75 22.875 0.75 Z M 22.875 -14.109375 C 24.3125 -14.109375 25.28125 -14.734375 25.78125 -15.984375 C 26.28125 -17.242188 26.53125 -19.003906 26.53125 -21.265625 L 26.53125 -60.796875 C 26.53125 -62.546875 26.296875 -63.96875 25.828125 -65.0625 C 25.359375 -66.164062 24.40625 -66.71875 22.96875 -66.71875 C 20.269531 -66.71875 18.921875 -64.679688 18.921875 -60.609375 L 18.921875 -21.171875 C 18.921875 -18.847656 19.203125 -17.085938 19.765625 -15.890625 C 20.328125 -14.703125 21.363281 -14.109375 22.875 -14.109375 Z M 22.875 -14.109375 "/></g></g></g><g clip-path="url(#cb909d1af5)"><g clip-path="url(#537e6acd59)"><path fill="#000000" d="M 252.300781 207.300781 L 271.902344 207.300781 L 271.902344 226.902344 L 252.300781 226.902344 Z M 252.300781 207.300781 " fill-opacity="1" fill-rule="nonzero"/></g></g></svg>